<?xml version="1.0" encoding="utf-8"?>
<!-- Generator: Adobe Illustrator 24.1.2, SVG Export Plug-In . SVG Version: 6.00 Build 0)  -->
<svg version="1.1" xmlns="http://www.w3.org/2000/svg" xmlns:xlink="http://www.w3.org/1999/xlink" x="0px" y="0px"
	 viewBox="0 0 1306 1080" style="enable-background:new 0 0 1306 1080;" xml:space="preserve">
<style type="text/css">
	.st0{fill:#FFFFFF;}
	.st1{fill:#332222;}
	.st2{fill:#F8B133;}
</style>
<g id="Camada_1">
	<g id="grupao">
		<g id="_x33_d">
			<path class="st0" d="M344.8,486.63c-9.92-21.02-30.08-32.51-60.54-34.44c-13.53-0.97-26.78,0.17-39.69,3.44
				c-11.46,2.9-21.63,7.36-30.52,13.38l0.26-3.96c0,0-17.68,17.84-19.18,25.18c0,0.01,0,0.02,0,0.03c-0.95,2.22-1.7,4.51-2.22,6.87
				c-1.92,7.98-0.49,13.23,4.35,15.77c4.84,2.54,10.52,0.92,17.04-4.9c2.9-3.38,6.76-6.63,11.6-9.77
				c-2.43,51.7-2.54,96.9-0.37,135.56c-0.49,5.08,2.65,9.31,9.44,12.69c6.76,3.38,13.58,4.65,20.48,3.81
				c2.85-0.35,5.08-1.09,6.76-2.17c0.25-0.14,0.51-0.31,0.78-0.53c0.03-0.02,0.06-0.06,0.09-0.08c0.07-0.06,0.14-0.13,0.21-0.19
				c8.82-5.9,8.82-11.5,8.82-11.5c2-3.36,0-3.74,0-3.74h-7.09c-1.29-18.1-1.53-37.94-0.7-59.55c13.77,4.58,26.83,5.19,39.15,1.81
				c17.88-4.84,31.19-16.2,39.87-34.08C352.29,521.67,352.78,503.79,344.8,486.63z M302.03,531.22
				c-9.44,10.87-21.53,13.42-36.25,7.6c0.95-13.29,2.41-32.14,4.33-56.54c4.6-0.49,8.95-0.6,13.06-0.36
				c14.99,1.44,23.92,8.2,26.81,20.29C312.66,512.85,309.99,522.51,302.03,531.22z"/>
			<path class="st0" d="M435.07,577.61c12.8-2.65,22.89-8.45,30.27-17.4c7.36-8.93,10.2-19.34,8.5-31.17
				c-1.92-13.55-10.02-23.56-24.27-30.1c-6.54-2.9-13.66-4.63-21.39-5.25c-7.74-0.6-15.64,0.06-23.75,2
				c-8.09,1.92-16.01,5.74-23.73,11.42c-0.69,0.5-1.35,1.04-2.02,1.56l1.22-3.64c0,0-13.23,15.25-14.73,17.9
				c-0.01,0.02-0.01,0.03-0.02,0.04c-1.29,1.82-2.53,3.71-3.69,5.69c-3.14,5.08-5.74,10.82-7.79,17.23
				c-2.06,6.41-3.49,13.1-4.33,20.11c-0.86,7.03-1.05,13.9-0.56,20.67c0.73,8.71,2.49,16.85,5.27,24.48
				c2.77,7.6,6.71,14.44,11.77,20.48c5.08,6.04,11.47,10.82,19.21,14.31c7.74,3.51,16.31,5.14,25.75,4.9
				c8.45,0,16.26-1.46,23.37-4.35c7.14-2.9,12.87-6.58,17.23-11.04c4.33-4.48,8.02-9.31,11.04-14.5c3.03-5.19,4.54-10.16,4.54-14.87
				c0-4.71-0.73-8.76-2.19-12.15c-1.04-1.64-2.3-2.68-3.76-3.12l1.68-1.68l0.22-7.47l-9.49,11.58l0.07,0
				c-0.54,0.62-1.03,1.31-1.42,2.15c-2.9,5.55-6.93,10.2-12.13,13.96c-5.21,3.74-10.22,5.85-15.06,6.33
				c-11.36,1.21-20.05-2.47-26.08-11.06c-6.05-8.56-8.6-18.29-7.62-29.17C407.64,579.56,422.25,580.28,435.07,577.61z
				 M399.72,538.11c5.19-7.74,11.06-13.23,17.58-16.5s12.8-2.73,18.85,1.63c3.38,3.14,4.58,7.32,3.62,12.52
				c-0.97,5.19-3.87,9.72-8.71,13.58c-4.35,3.87-10.58,6.95-18.67,9.25c-8.09,2.3-15.17,2.84-21.21,1.63
				C391.68,553.21,394.52,545.85,399.72,538.11z"/>
			<path class="st0" d="M566.27,525.05c1.21,0.09,2.33-0.13,3.37-0.63c0,0,0.01,0,0.01,0.01c2.32,0.7,13.33-15.24,13.33-15.24
				l-6.31,0.78c0.05-1.37-0.03-2.74-0.26-4.11c-0.71-4.35-2.9-6.52-6.52-6.52c-5.79-0.24-14.37-0.49-25.73-0.73
				c2.9-31.41,4.35-47.61,4.35-48.58c0-5.31-3.81-8.45-11.42-9.42c-6.09-0.78-12.09-0.06-18.01,2.09l-0.86-5.66
				c0,0-7.8,6.22-12.98,15.63c-0.37,0.67-0.59,1.23-0.72,1.72c-0.46,1.38-0.68,2.82-0.62,4.34c0,4.84-0.84,17.88-2.52,39.15h-8.95
				l0.15-0.3l3.07-10.52c0,0-6.05,1.1-13.9,15.15l0.02,0.01c-0.49,0.71-0.97,1.48-1.43,2.37c-2.41,4.71-3.36,9.42-2.9,14.14
				c0.49,4.71,2.3,7.19,5.44,7.42c6.52-0.47,12.09-0.84,16.69-1.08c-1.94,32.62-2.06,58.13-0.37,76.5
				c1.46,15.7,4.35,27.36,8.71,34.98c4.35,7.6,11.36,12.26,21.02,13.96c8.46,1.44,16.85-0.56,25.19-6
				c8.35-5.44,14.63-12.99,18.85-22.65c4.13-9.46,4.95-18.8,2.5-28.05h4.01l-0.93-15.88c0,0-5.61,0-14.57,13.57l0,0
				c-0.68,0.84-1.14,1.89-1.33,3.17c-1.68,10.15-5.68,16.74-11.96,19.75c-6.28,3.03-9.96-5.31-11.06-25
				c-1.08-19.69-0.3-41.39,2.37-65.08C548.28,524.56,556.37,524.81,566.27,525.05z"/>
			<path class="st0" d="M921.16,494.24c-10.39-2.41-20.42-1.74-30.08,2c-9.68,3.76-17.83,9.66-24.48,17.75
				c-6.65,8.11-12.39,17.47-17.21,28.1c-4.84,10.63-7.74,21.69-8.71,33.17c-0.97,11.49-0.54,22.29,1.27,32.44
				c1.81,10.16,5.98,19.04,12.5,26.64c6.52,7.62,14.87,12.76,25.02,15.42c15.23,3.38,29.49,1.03,42.77-7.06
				c13.29-8.11,23.21-19.45,29.73-34.08c6.52-14.61,10.63-29.84,12.31-45.69c1.7-15.81-1.25-30.31-8.88-43.48
				C947.81,506.27,936.39,497.86,921.16,494.24z"/>
			<path class="st0" d="M789.94,494.24c-10.39-2.41-20.42-1.74-30.08,2c-9.68,3.76-17.83,9.66-24.48,17.75
				c-6.63,8.11-12.39,17.47-17.21,28.1c-4.84,10.63-7.74,21.69-8.71,33.17c-0.97,11.49-0.54,22.29,1.27,32.44
				c1.81,10.16,5.98,19.04,12.5,26.64c6.54,7.62,14.87,12.76,25.02,15.42c15.23,3.38,29.49,1.03,42.77-7.06
				c13.29-8.11,23.21-19.45,29.73-34.08c6.52-14.61,10.63-29.84,12.33-45.69c1.68-15.81-1.27-30.31-8.89-43.48
				C816.58,506.27,805.16,497.86,789.94,494.24z"/>
			<path class="st0" d="M701.5,536.95l-0.09,0.21c-0.25-0.66-0.51-1.31-0.82-1.97c-2.06-4.33-4.65-6.39-7.79-6.15
				c-22.72,0.71-41.82,0.84-57.27,0.35c0.71-11.6,1.92-26.94,3.62-46.04c4.33,0.24,10.02,0.62,17.02,1.08
				c7.01,0.49,12.63,0.86,16.85,1.1c4.24,0.24,8.89,0.36,13.96,0.36c5.08,0,9.55-0.11,13.42-0.36c3.35,0,6.47-0.79,9.39-2.37
				c0,0,0,0,0.01,0c15.39-3.17,20.77-25.85,20.77-25.85l-9.15,2.77c-1.2-5.24-4.93-7.77-11.22-7.55
				c-14.01,2.9-29.13,3.51-45.31,1.81c-16.2-1.68-32.51-3.14-48.94-4.35c-11.2-0.81-19.42-0.73-24.66,0.24l-0.79-6.19
				c0,0-5.62,6.29-9.72,11.59c-2.16,2.11-3.8,4.82-4.88,8.15c-1.81,5.55-1.33,10.58,1.46,15.04c2.77,4.47,7.55,6.33,14.31,5.61
				c1.21,0,2.54-0.11,4-0.36c-2.91,58-3.27,107.78-1.1,149.35c-0.24,5.31,2.97,9.66,9.6,13.04c6.65,3.38,13.42,4.65,20.31,3.81
				c1.72-0.21,3.22-0.55,4.52-1.03c9.32-3.38,14.83-16.59,14.83-16.59l-9.2-0.58l-0.5,0.46c-1.55-22.71-1.69-48.15-0.4-76.33
				c28.74-0.24,49.65-0.73,62.71-1.46c0.79,0,1.5-0.13,2.14-0.37c0.01,0,0.01,0,0.02,0c4.18,0.8,12.76-15.04,12.76-15.04
				L701.5,536.95z"/>
			<path class="st0" d="M1107.88,631.87l-9.87-2.95c-0.12-2.39-0.23-4.8-0.32-7.27c-0.24-6.63-0.49-12.74-0.73-18.29
				c-0.24-5.57-0.24-12.15,0-19.77c0.24-7.6,0.36-13.77,0.36-18.48c0-4.71,0.24-11.3,0.73-19.75c0.49-8.46,0.84-14.63,1.08-18.5
				c0.24-3.87,0.67-10.5,1.27-19.94c0.6-9.42,1.03-15.58,1.27-18.48c0.24-2.9,0.78-9.44,1.63-19.58
				c0.86-10.15,1.27-16.42,1.27-18.85c0-2.9-1.08-5.19-3.25-6.88c-6.05-4.11-14.5-4.22-25.37-0.37c-0.48,0.16-0.95,0.33-1.41,0.5
				l1.03-3.62l-1.66-2.02c0,0-11.07,10.6-12.18,14.72c0,0,0,0.01,0,0.01c-1.07,1.94-1.55,4.06-1.39,6.37
				c-0.95,16.2-1.68,31.05-2.17,44.58c-9.9-8.93-21.51-11.66-34.79-8.15c-13.3,3.49-24.42,12.39-33.35,26.64
				c-5.79,9.17-10.39,20.18-13.77,32.98c-3.4,12.82-5.14,25.67-5.27,38.6c-0.11,12.93,3.03,24.59,9.44,34.98
				c6.39,10.39,15.99,17.04,28.81,19.94c18.85,4.35,35.17-4.58,48.94-26.81c0,3.38,0.11,6.88,0.36,10.5
				c-0.24,3.38,0.97,6.52,3.64,9.44c5.31,6.04,12.91,9.06,22.83,9.06c3.33,0,6.04-0.44,8.17-1.3l0,0c0,0,0,0,0,0
				c1.73-0.7,3.06-1.69,3.99-2.97C1108.68,637.12,1107.88,631.87,1107.88,631.87z M1057.09,567.47
				c-1.46,12.33-4.71,23.32-9.79,32.98c-5.08,9.68-11.36,14.74-18.85,15.23c-9.17,0.24-14.85-6.76-17.02-21.02
				c-1.7-16.18,1.08-32.14,8.33-47.85c7.72-15.94,16.78-21.75,27.19-17.4c5.55,2.17,8.93,8.95,10.15,20.29V567.47z"/>
		</g>
		<g id="principal">
			<g>
				<path class="st1" d="M354.14,475.42c-9.92-21.02-30.08-32.51-60.54-34.44c-13.53-0.97-26.78,0.17-39.69,3.44
					c-12.93,3.27-24.23,8.52-33.89,15.77c-9.68,7.25-15.58,15.83-17.77,25.73c-1.92,7.98-0.49,13.23,4.35,15.77
					c4.84,2.54,10.52,0.92,17.04-4.9c2.9-3.38,6.76-6.63,11.6-9.77c-2.43,51.7-2.54,96.9-0.37,135.56
					c-0.49,5.08,2.65,9.31,9.44,12.69c6.76,3.38,13.58,4.65,20.48,3.81c6.88-0.84,10.33-3.81,10.33-8.88
					c-1.94-20.53-2.43-43.5-1.46-68.87c13.77,4.58,26.83,5.19,39.15,1.81c17.88-4.84,31.19-16.2,39.87-34.08
					C361.64,510.46,362.12,492.58,354.14,475.42z M311.37,520.01c-9.44,10.87-21.53,13.42-36.25,7.6
					c0.95-13.29,2.41-32.14,4.33-56.54c4.6-0.49,8.95-0.6,13.06-0.36c14.99,1.44,23.92,8.2,26.81,20.29
					C322,501.64,319.33,511.3,311.37,520.01z"/>
				<path class="st1" d="M467.43,579.46c-2.78,0.49-4.78,2.06-6,4.71c-2.9,5.55-6.93,10.2-12.13,13.96
					c-5.21,3.74-10.22,5.85-15.06,6.33c-11.36,1.21-20.05-2.47-26.08-11.06c-6.05-8.56-8.6-18.29-7.62-29.17
					c16.44,4.11,31.05,4.84,43.87,2.17c12.8-2.65,22.89-8.45,30.27-17.4c7.36-8.93,10.2-19.34,8.5-31.17
					c-1.92-13.55-10.02-23.56-24.27-30.1c-6.54-2.9-13.66-4.63-21.39-5.25c-7.74-0.6-15.64,0.06-23.75,2
					c-8.09,1.92-16.01,5.74-23.73,11.42c-7.74,5.68-14.14,12.87-19.23,21.56c-3.14,5.08-5.74,10.82-7.79,17.23
					c-2.06,6.41-3.49,13.1-4.33,20.11c-0.86,7.03-1.05,13.9-0.56,20.67c0.73,8.71,2.49,16.85,5.27,24.48
					c2.77,7.6,6.71,14.44,11.77,20.48c5.08,6.04,11.47,10.82,19.21,14.31c7.74,3.51,16.31,5.14,25.75,4.9
					c8.45,0,16.26-1.46,23.37-4.35c7.14-2.9,12.87-6.58,17.23-11.04c4.33-4.48,8.02-9.31,11.04-14.5
					c3.03-5.19,4.54-10.16,4.54-14.87c0-4.71-0.73-8.76-2.19-12.15C472.44,580.06,470.2,578.98,467.43,579.46z M409.06,526.9
					c5.19-7.74,11.06-13.23,17.58-16.5c6.52-3.27,12.8-2.73,18.85,1.63c3.38,3.14,4.58,7.32,3.62,12.52
					c-0.97,5.19-3.87,9.72-8.71,13.58c-4.35,3.87-10.58,6.95-18.67,9.25c-8.09,2.3-15.17,2.84-21.21,1.63
					C401.02,542,403.86,534.64,409.06,526.9z"/>
				<path class="st1" d="M584.68,581.98c-1.21-3.14-3.49-4.47-6.88-3.98c-3.4,0.49-5.33,2.3-5.81,5.44
					c-1.68,10.15-5.68,16.74-11.96,19.75c-6.28,3.03-9.96-5.31-11.06-25c-1.08-19.69-0.3-41.39,2.37-65.08
					c6.28,0.24,14.37,0.49,24.27,0.73c3.38,0.24,6.11-1.81,8.17-6.17c2.06-4.33,2.71-8.69,1.98-13.04c-0.71-4.35-2.9-6.52-6.52-6.52
					c-5.79-0.24-14.37-0.49-25.73-0.73c2.9-31.41,4.35-47.61,4.35-48.58c0-5.31-3.81-8.45-11.42-9.42
					c-7.62-0.97-15.12,0.36-22.48,3.98c-7.38,3.62-10.95,8.35-10.71,14.14c0,4.84-0.84,17.88-2.52,39.15h-12.33
					c-3.38-0.24-6.28,2-8.71,6.71c-2.41,4.71-3.36,9.42-2.9,14.14c0.49,4.71,2.3,7.19,5.44,7.42c6.52-0.47,12.09-0.84,16.69-1.08
					c-1.94,32.62-2.06,58.13-0.37,76.5c1.46,15.7,4.35,27.35,8.71,34.98c4.35,7.6,11.36,12.26,21.02,13.96
					c8.46,1.44,16.85-0.56,25.19-6c8.35-5.44,14.63-12.99,18.85-22.65C586.55,600.97,587.33,591.42,584.68,581.98z"/>
				<path class="st1" d="M719.53,441.34c-14.01,2.9-29.13,3.51-45.31,1.81c-16.2-1.68-32.51-3.14-48.94-4.35
					c-16.44-1.2-26.46-0.47-30.08,2.19c-4.84,2.17-8.17,6.04-9.98,11.6c-1.81,5.55-1.33,10.58,1.46,15.04
					c2.77,4.47,7.55,6.33,14.31,5.61c1.21,0,2.54-0.11,4-0.36c-2.91,58-3.27,107.78-1.1,149.35c-0.24,5.31,2.97,9.66,9.6,13.04
					c6.65,3.38,13.42,4.65,20.31,3.81c6.88-0.84,10.33-3.81,10.33-8.88c-2.19-24.89-2.54-53.29-1.08-85.19
					c28.74-0.24,49.65-0.73,62.71-1.46c3.38,0,5.44-2.17,6.17-6.52c0.71-4.35,0.06-8.71-2-13.06c-2.06-4.33-4.65-6.39-7.79-6.15
					c-22.72,0.71-41.82,0.84-57.27,0.35c0.71-11.6,1.92-26.94,3.62-46.04c4.33,0.24,10.02,0.62,17.02,1.08
					c7.01,0.49,12.63,0.86,16.85,1.1c4.24,0.24,8.89,0.36,13.96,0.36c5.08,0,9.55-0.11,13.42-0.36c4.35,0,8.33-1.33,11.96-4
					c6.54-5.06,9.66-11.36,9.44-18.85C730.65,444.48,726.78,441.1,719.53,441.34z"/>
				<path class="st1" d="M964.75,508.23c-7.6-13.17-19.02-21.58-34.25-25.21c-10.39-2.41-20.42-1.74-30.08,2
					c-9.68,3.76-17.83,9.66-24.48,17.75c-6.65,8.11-12.39,17.47-17.21,28.1c-4.84,10.63-7.74,21.69-8.71,33.17
					c-0.97,11.49-0.54,22.29,1.27,32.44c1.81,10.16,5.98,19.04,12.5,26.64c6.52,7.62,14.87,12.76,25.02,15.42
					c15.23,3.38,29.49,1.03,42.77-7.06c13.29-8.11,23.21-19.45,29.73-34.08c6.52-14.61,10.63-29.84,12.31-45.69
					C975.33,535.91,972.38,521.41,964.75,508.23z M911.05,535.66c0.3-6.05,4.15-9.32,7.72-9.77c0.07,0,0.17-0.02,0.24-0.02
					c0.75-0.07,1.44,0.11,2.06,0.5c2.45,1.51,3.83,6.09,3.83,10.2v0.47c-0.09,3.68-1.72,6.76-3.87,8.45
					c-0.15,0.13-0.32,0.24-0.49,0.36c-0.41,0.19-0.9,0.24-1.38,0.09c-0.19-0.11-0.37-0.21-0.56-0.28c-0.11-0.06-0.24-0.09-0.36-0.13
					c-0.71-0.19-1.4-0.19-2.02-0.02c-0.22,0.19-0.52,0.32-0.82,0.37c-0.26,0.04-0.54,0.02-0.8-0.06c-0.11-0.04-0.22-0.07-0.32-0.13
					c-0.3-0.24-0.56-0.52-0.82-0.82C911.76,542.82,910.86,539.42,911.05,535.66z M896.48,551.17c-0.32,0.13-0.65,0.22-1.03,0.22
					c-0.15,0-0.3-0.02-0.45-0.04c-0.45-0.21-0.88-0.45-1.31-0.75c-1.66-1.12-3.16-2.91-4.32-5.16c-0.88-1.61-1.57-3.46-2.04-5.47
					c-1.83-7.68,1.81-13.14,6.11-14.99c0.09-0.06,0.21-0.09,0.3-0.13c0.92-0.35,1.83-0.37,2.75-0.11c0.77,0.21,1.53,0.62,2.26,1.18
					c1.05,0.78,2.04,1.89,2.93,3.2c1.53,2.19,2.77,4.91,3.46,7.59c1.2,4.62,0.3,9.06-1.78,11.94c-0.17,0.22-0.32,0.43-0.49,0.64
					c-0.43,0.37-1.01,0.6-1.66,0.6c-0.02,0-0.02,0-0.04,0c-0.26-0.07-0.52-0.11-0.8-0.15c-0.17-0.02-0.32-0.02-0.49-0.02
					c-0.95,0-1.83,0.26-2.52,0.69C897.15,550.72,896.83,550.99,896.48,551.17z M929.44,566.87c0.19,1.05-0.28,2.71-0.28,3.72
					c0,1.4,0.43,1.91-0.04,3.12c0.04,0.41-0.69,4.39-0.78,4.8c-1.35,5.83-1.4,5.62-6.6,8.74c-0.77,0.45-1.63,0.97-2.62,1.59
					c-1.68,0.5-3.48,0.8-5.33,0.84c-7.38-0.17-13.43-5.53-14.52-12.52c-0.11-0.71-0.17-1.46-0.17-2.2c0-0.93,0.09-1.83,0.26-2.71
					c-0.06-1.85-0.22-3.62-0.47-5.33c-0.93-1.48-1.46-3.21-1.46-5.06c0-0.36,0.02-0.71,0.06-1.07c0.15-1.27,0.54-2.47,1.12-3.53
					c1.96-2.13,4.19-4.97,7.14-4.97c2.69,0.02,6-0.71,7.6-1.48c2.88-1.38,6.8,0.39,7.46,0.67c3.76,1.64,2.91,2.88,7.75,6.28
					c0.82,1.64,1.29,3.49,1.29,5.46c0,1.18-0.17,2.32-0.49,3.38C929.4,566.68,929.42,566.77,929.44,566.87z M941.45,546.09
					c-1.2,3.36-3.64,5.72-6.15,6.61c-0.19,0.07-0.37,0.13-0.56,0.19c-0.43,0.06-0.92-0.06-1.31-0.36c-0.13-0.15-0.28-0.3-0.43-0.43
					c-0.09-0.07-0.21-0.15-0.3-0.22c-0.32-0.21-0.65-0.37-0.99-0.47c-0.28-0.09-0.58-0.15-0.86-0.17c-0.28,0.11-0.58,0.13-0.88,0.09
					c-0.24-0.04-0.5-0.15-0.73-0.3c-0.09-0.06-0.17-0.13-0.24-0.21c-0.21-0.32-0.37-0.65-0.5-1.03c-0.95-2.41-0.75-5.83,0.58-9.25
					c0.56-1.44,1.27-2.62,2.09-3.57c2.34-2.71,5.49-3.59,8.03-3.08c0.09,0.02,0.17,0.04,0.24,0.06c0.71,0.17,1.29,0.54,1.74,1.08
					c0.93,1.14,1.36,2.95,1.36,4.97C942.55,542,942.14,544.17,941.45,546.09z"/>
				<path class="st1" d="M1110.66,431.92c-6.05-4.11-14.5-4.22-25.37-0.37c-10.87,3.62-16.09,8.95-15.6,15.96
					c-0.95,16.2-1.68,31.05-2.17,44.58c-9.9-8.93-21.51-11.66-34.79-8.15c-13.3,3.49-24.42,12.39-33.35,26.64
					c-5.79,9.17-10.39,20.18-13.77,32.98c-3.4,12.82-5.14,25.67-5.27,38.6c-0.11,12.93,3.03,24.59,9.44,34.98
					c6.39,10.39,15.99,17.04,28.81,19.94c18.85,4.35,35.17-4.58,48.94-26.81c0,3.38,0.11,6.88,0.36,10.5
					c-0.24,3.38,0.97,6.52,3.64,9.44c5.31,6.04,12.91,9.06,22.83,9.06c9.17,0,13.77-3.27,13.77-9.79
					c-0.49-6.04-0.86-12.39-1.08-19.04c-0.24-6.63-0.49-12.74-0.73-18.29c-0.24-5.57-0.24-12.15,0-19.77
					c0.24-7.6,0.36-13.77,0.36-18.48c0-4.71,0.24-11.3,0.73-19.75c0.49-8.46,0.84-14.63,1.08-18.5c0.24-3.87,0.67-10.5,1.27-19.94
					c0.6-9.42,1.03-15.58,1.27-18.48c0.24-2.9,0.78-9.44,1.63-19.58c0.86-10.15,1.27-16.42,1.27-18.85
					C1113.92,435.9,1112.83,433.61,1110.66,431.92z M1066.44,556.25c-1.46,12.33-4.71,23.32-9.79,32.98
					c-5.08,9.68-11.36,14.74-18.85,15.23c-9.17,0.24-14.85-6.76-17.02-21.02c-1.7-16.18,1.08-32.14,8.33-47.85
					c7.72-15.94,16.78-21.75,27.19-17.4c5.55,2.17,8.93,8.95,10.15,20.29V556.25z"/>
			</g>
			<path class="st1" d="M833.53,508.23c-7.6-13.17-19.02-21.58-34.25-25.21c-10.39-2.41-20.42-1.74-30.08,2
				c-9.68,3.76-17.83,9.66-24.48,17.75c-6.63,8.11-12.39,17.47-17.21,28.1c-4.84,10.63-7.74,21.69-8.71,33.17
				c-0.97,11.49-0.54,22.29,1.27,32.44c1.81,10.16,5.98,19.04,12.5,26.64c6.54,7.62,14.87,12.76,25.02,15.42
				c15.23,3.38,29.48,1.03,42.77-7.06c13.29-8.11,23.21-19.45,29.73-34.08c6.52-14.61,10.63-29.84,12.33-45.69
				C844.1,535.91,841.15,521.41,833.53,508.23z M768.11,542.18c0-4.11,1.38-8.69,3.83-10.2c0.62-0.39,1.31-0.58,2.06-0.5
				c0.07,0,0.17,0.02,0.24,0.02c3.57,0.45,7.42,3.72,7.72,9.77c0.19,3.76-0.71,7.16-2.41,9.21c-0.26,0.3-0.54,0.58-0.82,0.82
				c-0.09,0.06-0.21,0.09-0.32,0.13c-0.28,0.07-0.54,0.09-0.8,0.06c-0.3-0.06-0.6-0.19-0.82-0.37c-0.62-0.17-1.31-0.17-2.02,0.02
				c-0.11,0.04-0.24,0.07-0.36,0.13c-0.19,0.07-0.37,0.17-0.56,0.28c-0.49,0.15-0.97,0.09-1.38-0.09c-0.17-0.11-0.34-0.22-0.49-0.36
				c-2.15-1.68-3.77-4.76-3.87-8.45V542.18z M762.15,556.85c-0.62,0.04-1.27,0.24-1.85,0.64c-0.09,0.07-0.21,0.15-0.3,0.22
				c-0.15,0.13-0.3,0.28-0.43,0.43c-0.41,0.3-0.88,0.41-1.31,0.36c-0.19-0.06-0.37-0.11-0.56-0.19c-0.84-0.3-1.68-0.77-2.47-1.42
				c-1.55-1.18-2.9-2.97-3.68-5.19c-1.4-3.87-1.61-8.8,0.24-11.04c0.02,0,0.02,0,0.02,0c0.45-0.54,1.03-0.92,1.74-1.08
				c0.07-0.02,0.15-0.04,0.24-0.06c1.85-0.37,4.04,0,6,1.31c1.66,1.07,3.14,2.82,4.13,5.34c1.31,3.42,1.51,6.84,0.58,9.25
				c-0.13,0.37-0.3,0.71-0.5,1.03c-0.07,0.07-0.15,0.15-0.24,0.21c-0.22,0.15-0.49,0.26-0.73,0.3
				C762.73,556.98,762.41,556.96,762.15,556.85z M794.1,572.53c-0.24,1.7-0.41,3.48-0.47,5.33c0.13,0.71,0.22,1.42,0.22,2.17
				c0.04,0.17,0.04,0.35,0.04,0.54c0,0.75-0.06,1.49-0.17,2.2c-0.64,4.07-2.95,7.59-6.24,9.85c-2.35,1.64-5.21,2.62-8.28,2.67
				c-1.85-0.04-3.64-0.34-5.33-0.84c-7.81-4.9-7.68-3.66-9.21-10.33c-0.09-0.41-0.82-4.39-0.78-4.8c-0.49-1.21-0.06-1.72-0.06-3.12
				c0-1.1-0.52-2.97-0.21-3.98c-0.32-1.07-0.49-2.2-0.49-3.38c0-1.96,0.47-3.81,1.29-5.46c4.84-3.4,4-4.63,7.75-6.28
				c0.65-0.28,4.58-2.06,7.46-0.67c1.59,0.77,4.9,1.49,7.6,1.48c2.95,0,5.18,2.84,7.14,4.97c0.58,1.06,0.97,2.26,1.12,3.53
				c0.04,0.36,0.06,0.71,0.06,1.07C795.56,569.32,795.04,571.05,794.1,572.53z M805.67,545.59c-1.01,4.28-3.03,7.89-5.49,9.98
				c-0.28,0.24-0.56,0.45-0.86,0.65c-0.43,0.3-0.86,0.54-1.31,0.75c-0.15,0.02-0.3,0.04-0.45,0.04c-0.37,0-0.71-0.09-1.03-0.22
				c-0.36-0.19-0.67-0.45-0.9-0.77c-0.69-0.43-1.57-0.69-2.52-0.69c-0.17,0-0.32,0-0.49,0.02c-0.28,0.04-0.54,0.07-0.8,0.15h-0.06
				c-0.64,0-1.21-0.22-1.64-0.6c-0.17-0.21-0.34-0.41-0.49-0.64c-2.07-2.88-2.99-7.32-1.77-11.94c0.71-2.67,1.92-5.4,3.44-7.59
				c1.53-2.2,3.33-3.87,5.21-4.37c0.69-0.21,1.38-0.24,2.07-0.09c0.22,0.04,0.45,0.11,0.67,0.21c0.09,0.04,0.21,0.07,0.3,0.13
				C803.86,532.45,807.5,537.91,805.67,545.59z"/>
		</g>
		<g id="efeito_de__Luz">
			<path class="st0" d="M312.45,445.95c0,0,45.49,9.46,44.81,58.93C357.26,504.87,354.74,458.95,312.45,445.95z"/>
			<path class="st0" d="M452,487c0,0,24,6,29,27C481,514,467.11,492.16,452,487z"/>
			<path class="st0" d="M546,431c0,0,16-3,9,21C555,452,559,432,546,431z"/>
			<path class="st0" d="M579.48,489.16c0,0,5.61-1.87,5.61,9.34C585.09,498.5,585.09,489.16,579.48,489.16z"/>
			<path class="st0" d="M580.42,578.84c0,0,5.85-2.02,5.31,17.76C585.73,596.6,585.19,578.84,580.42,578.84z"/>
			<path class="st0" d="M717,443c0,0,17-5,11.97,16.26C728.97,459.26,731,441,717,443z"/>
			<path class="st0" d="M700.94,519.05c0,0,9.06-3.05,10.06,17.95C711,537,708,518,700.94,519.05
				C700.01,519.19,700.94,519.05,700.94,519.05z"/>
			<path class="st0" d="M805.36,487.39c0,0,22.36,3.15,32.19,33.43C837.55,520.82,828.03,495.16,805.36,487.39z"/>
			<path class="st0" d="M936.16,487.39c0,0,22.36,3.15,32.19,33.43C968.35,520.82,958.82,495.16,936.16,487.39z"/>
			<path class="st0" d="M1095.19,431.23c0,0,20.55-5.61,16.82,13.08C1112.01,444.31,1115.75,429.36,1095.19,431.23z"/>
		</g>
	</g>
	<path class="st2" d="M467,579"/>
</g>
<g id="Camada_3">
</g>
<g id="PELOS">
</g>
</svg>
